<svg width="144" height="144" viewBox="0 0 144 144" fill="none" xmlns="http://www.w3.org/2000/svg">
<g clip-path="url(#clip0_1_2)">
<rect width="144" height="144" fill="#F1F5F9"/>
<path d="M23.6719 107.711C20.2344 105.133 17.8906 101.969 16.6406 98.2188C15.3906 94.4688 15 90.4062 15.4688 86.0312C15.9375 81.5781 17.1094 76.9688 18.9844 72.2031C20.8594 67.3594 23.1641 62.6328 25.8984 58.0234C28.7109 53.4141 31.8359 49.0391 35.2734 44.8984C38.7891 40.6797 42.3438 37.0078 45.9375 33.8828C49.6094 30.6797 53.2031 28.1406 56.7188 26.2656C60.3125 24.3125 63.5938 23.2578 66.5625 23.1016C67.9688 22.7109 69.375 22.75 70.7812 23.2188C72.2656 23.6875 73.5938 24.4297 74.7656 25.4453C75.9375 26.3828 76.9141 27.5156 77.6953 28.8438C78.4766 30.1719 78.9844 31.5 79.2188 32.8281C79.4531 34.0781 79.2969 35.2891 78.75 36.4609C78.2031 37.5547 77.1875 38.375 75.7031 38.9219C75.4688 39.0781 75.0781 39.1562 74.5312 39.1562C74.0625 39.1562 73.8281 39.0781 73.8281 38.9219V29.6641C73.8281 29.5078 73.6328 29.3516 73.2422 29.1953C72.8516 28.9609 72.3828 28.8047 71.8359 28.7266C71.3672 28.5703 70.8594 28.4531 70.3125 28.375C69.8438 28.2969 69.4531 28.2969 69.1406 28.375C61.4062 30.3281 54.7656 33.6094 49.2188 38.2188C43.75 42.8281 39.1797 48.2969 35.5078 54.625C30.2734 63.7656 26.4453 71.3828 24.0234 77.4766C21.6797 83.5703 20.3516 88.4141 20.0391 92.0078C19.8047 95.6016 20.4688 98.1406 22.0312 99.625C23.5938 101.031 25.7031 101.656 28.3594 101.5C31.0156 101.344 34.1016 100.562 37.6172 99.1562C41.1328 97.6719 44.6875 95.875 48.2812 93.7656C51.9531 91.5781 55.5078 89.1953 58.9453 86.6172C62.3828 83.9609 65.3906 81.4219 67.9688 79C70.5469 76.5781 72.5 74.3906 73.8281 72.4375C75.2344 70.4062 75.7031 68.9219 75.2344 67.9844C73.9844 67.75 72.6172 67.8281 71.1328 68.2188C69.6484 68.5312 68.3594 68.8828 67.2656 69.2734C66.5625 69.5078 65.2344 69.9375 63.2812 70.5625C61.4062 71.1875 59.4141 71.8516 57.3047 72.5547C55.1953 73.2578 53.2031 73.9219 51.3281 74.5469C49.4531 75.1719 48.1641 75.6406 47.4609 75.9531C46.3672 76.3438 45.4297 76.2656 44.6484 75.7188C43.9453 75.0938 43.4375 74.3516 43.125 73.4922C42.8906 72.5547 42.8906 71.6953 43.125 70.9141C43.3594 70.0547 43.9062 69.5078 44.7656 69.2734C46.0156 69.0391 48.2031 68.375 51.3281 67.2812C54.5312 66.1094 58.125 64.8594 62.1094 63.5312C66.0938 62.125 70.1953 60.7578 74.4141 59.4297C78.6328 58.1016 82.3438 57.125 85.5469 56.5C88.75 55.875 91.1719 55.7969 92.8125 56.2656C94.5312 56.6562 94.8828 57.9062 93.8672 60.0156C93.1641 60.7969 91.875 62.1641 90 64.1172C88.125 65.9922 86.1328 67.9844 84.0234 70.0938C81.9141 72.2031 79.8828 74.1953 77.9297 76.0703C76.0547 77.9453 74.7266 79.2344 73.9453 79.9375C73.6328 80.1719 72.7344 80.9141 71.25 82.1641C69.8438 83.4141 68.2031 84.8203 66.3281 86.3828C64.5312 87.8672 62.7344 89.3906 60.9375 90.9531C59.1406 92.4375 57.7344 93.5703 56.7188 94.3516C55.7031 95.2109 54.4141 96.3047 52.8516 97.6328C51.2891 98.9609 49.5312 100.328 47.5781 101.734C45.7031 103.062 43.7109 104.352 41.6016 105.602C39.4922 106.773 37.3828 107.711 35.2734 108.414C33.1641 109.117 31.0938 109.469 29.0625 109.469C27.1094 109.469 25.3125 108.883 23.6719 107.711Z" fill="black"/>
<path d="M84.4814 129.335C82.9678 127.821 82.3118 125.753 82.5137 123.129C82.7155 120.505 83.2705 117.781 84.1787 114.955C85.0869 112.13 86.096 109.506 87.2061 107.084C88.3161 104.662 89.1234 102.947 89.6279 101.938C89.9307 101.13 90.5361 99.5661 91.4443 97.2451C92.4535 94.8232 93.6139 92.0482 94.9258 88.9199C96.2376 85.6908 97.5999 82.3102 99.0127 78.7783C100.425 75.2464 101.788 71.9163 103.1 68.7881C104.411 65.5589 105.521 62.7839 106.43 60.4629C107.439 58.041 108.095 56.4264 108.397 55.6191C108.599 55.0137 108.852 54.055 109.154 52.7432C109.558 51.3304 110.012 49.9176 110.517 48.5049C111.021 46.9912 111.576 45.5785 112.182 44.2666C112.787 42.8538 113.493 41.8447 114.301 41.2393C115.108 40.5329 116.016 40.3311 117.025 40.6338C118.035 40.9365 119.145 41.9961 120.355 43.8125C120.456 43.9134 120.053 45.2253 119.145 47.748C118.337 50.1699 117.177 53.4495 115.663 57.5869C114.25 61.6234 112.585 66.2653 110.668 71.5127C108.852 76.6592 106.934 81.957 104.916 87.4062C102.898 92.7546 100.88 98.0524 98.8613 103.3C96.944 108.446 95.1781 113.088 93.5635 117.226C92.0498 121.262 90.738 124.542 89.6279 127.064C88.6188 129.587 88.0133 130.899 87.8115 131C87.6097 131.101 87.0547 130.95 86.1465 130.546C85.3392 130.142 84.7842 129.739 84.4814 129.335Z" fill="black"/>
</g>
<defs>
<clipPath id="clip0_1_2">
<rect width="144" height="144" fill="white"/>
</clipPath>
</defs>
</svg>
