<svg width="90" height="90" viewBox="0 0 90 90" fill="none" xmlns="http://www.w3.org/2000/svg">
<rect width="90" height="90" fill="white"/>
<g clip-path="url(#clip0_1_14)">
<path d="M72.1833 34.666L68.3386 30.5391L72.4759 29.0333L72.1833 34.666Z" fill="white" stroke="#313131" stroke-width="0.996109"/>
<path d="M65.4099 37.1499L61.5651 33.023L65.7024 31.5172L65.4099 37.1499Z" fill="white" stroke="#313131" stroke-width="0.996109"/>
<path d="M20.3481 37.0769L71.2418 14.7368L76.6794 28.4327L24.1557 47.5424L20.3481 37.0769Z" fill="#F53E31"/>
<path d="M70.7742 39.3015L73.0154 44.2821H68.533L70.7742 39.3015Z" fill="white" stroke="#313131" stroke-width="0.996109"/>
<path d="M63.8015 39.3015L66.0428 44.2821H61.5603L63.8015 39.3015Z" fill="white" stroke="#313131" stroke-width="0.996109"/>
<path d="M77.0001 43.5351H22.7122V75.4106H77.0001V43.5351Z" fill="#F53E31"/>
<path d="M25.8249 45.5275C32.9079 45.5275 38.6498 39.7298 38.6498 32.5781C38.6498 25.4263 32.9079 19.6287 25.8249 19.6287C18.7419 19.6287 13 25.4263 13 32.5781C13 39.7298 18.7419 45.5275 25.8249 45.5275Z" fill="#F53E31"/>
<path d="M25.8249 41.045C30.4323 41.045 34.1673 37.31 34.1673 32.7026C34.1673 28.0952 30.4323 24.3602 25.8249 24.3602C21.2175 24.3602 17.4825 28.0952 17.4825 32.7026C17.4825 37.31 21.2175 41.045 25.8249 41.045Z" fill="white"/>
<path d="M27.1946 36.0645C29.9452 36.0645 32.1751 33.7788 32.1751 30.9594C32.1751 28.14 29.9452 25.8543 27.1946 25.8543C24.4439 25.8543 22.214 28.14 22.214 30.9594C22.214 33.7788 24.4439 36.0645 27.1946 36.0645Z" fill="black"/>
</g>
<defs>
<clipPath id="clip0_1_14">
<rect width="64" height="64" fill="white" transform="translate(13 13)"/>
</clipPath>
</defs>
</svg>
